<?xml version="1.0" encoding="UTF-8" standalone="no"?>
<!-- Created with Inkscape (http://www.inkscape.org/) -->

<svg
   xmlns:dc="http://purl.org/dc/elements/1.1/"
   xmlns:cc="http://creativecommons.org/ns#"
   xmlns:rdf="http://www.w3.org/1999/02/22-rdf-syntax-ns#"
   xmlns:svg="http://www.w3.org/2000/svg"
   xmlns="http://www.w3.org/2000/svg"
   xmlns:sodipodi="http://sodipodi.sourceforge.net/DTD/sodipodi-0.dtd"
   xmlns:inkscape="http://www.inkscape.org/namespaces/inkscape"
   width="157.07648mm"
   height="159.53593mm"
   viewBox="0 0 157.07647 159.53593"
   version="1.1"
   id="svg16"
   inkscape:version="0.92.3 (2405546, 2018-03-11)">
  <defs
     id="defs10" />
  <sodipodi:namedview
     id="base"
     pagecolor="#ffffff"
     bordercolor="#666666"
     borderopacity="1.0"
     inkscape:pageopacity="0.0"
     inkscape:pageshadow="2"
     inkscape:zoom="1.4"
     inkscape:cx="602.04905"
     inkscape:cy="367.59145"
     inkscape:document-units="mm"
     inkscape:current-layer="layer1"
     showgrid="false"
     inkscape:window-width="3840"
     inkscape:window-height="2104"
     inkscape:window-x="-16"
     inkscape:window-y="-16"
     inkscape:window-maximized="1" />
  <metadata
     id="metadata13">
    <rdf:RDF>
      <cc:Work
         rdf:about="">
        <dc:format>image/svg+xml</dc:format>
        <dc:type
           rdf:resource="http://purl.org/dc/dcmitype/StillImage" />
        <dc:title></dc:title>
      </cc:Work>
    </rdf:RDF>
  </metadata>
  <g
     inkscape:label="Layer 1"
     inkscape:groupmode="layer"
     id="layer1"
     transform="translate(-14.993352,-106.4691)">
    <ellipse
       id="path18"
       cx="-90.86824"
       cy="210.82143"
       rx="65.578873"
       ry="46.869045"
       style="stroke-width:0.26458332"
       transform="scale(-1,1)" />
    <path
       id="path20"
       style="fill:#ffffff;stroke-width:0.26458332"
       sodipodi:type="arc"
       sodipodi:cx="88.250839"
       sodipodi:cy="-177.37167"
       sodipodi:rx="30.805059"
       sodipodi:ry="7.5595241"
       sodipodi:start="6.137811"
       sodipodi:end="3.319812"
       d="m 118.73096,-178.46677 a 30.805059,7.5595241 0 0 1 -14.08798,7.49549 30.805059,7.5595241 0 0 1 -33.631941,-0.13555 30.805059,7.5595241 0 0 1 -13.077335,-7.60498 l 30.317135,1.34014 z"
       transform="matrix(0.99991688,-0.01289291,-0.01289291,-0.99991688,0,0)" />
    <path
       style="fill:#ffff00;stroke:#000000;stroke-width:1.16499996;stroke-linecap:butt;stroke-linejoin:miter;stroke-miterlimit:4;stroke-dasharray:none;stroke-opacity:1"
       d="m 87.690475,177.18155 17.386905,-22.67857 -18.898808,-11.71726 27.970238,-35.52976 30.61607,20.78868 -26.83631,15.875 12.85119,11.33929 -26.30942,22.09412 z"
       id="path827"
       inkscape:connector-curvature="0" />
    <path
       style="fill:#000000;stroke:#000000;stroke-width:0.45363533px;stroke-linecap:butt;stroke-linejoin:miter;stroke-opacity:1"
       d="m 62.377409,185.32642 -32.81984,-17.04453 4.77041,35.7781 z"
       id="path829"
       inkscape:connector-curvature="0"
       sodipodi:nodetypes="cccc" />
    <path
       style="fill:#000000;stroke:#000000;stroke-width:0.44308907px;stroke-linecap:butt;stroke-linejoin:miter;stroke-opacity:1"
       d="m 53.463819,189.53347 -33.82848,-8.33254 12.27822,34.96887 z"
       id="path829-3"
       inkscape:connector-curvature="0"
       sodipodi:nodetypes="cccc" />
    <path
       style="fill:#000000;stroke-width:2.32118273;stroke-miterlimit:4;stroke-dasharray:none"
       id="path846"
       sodipodi:type="arc"
       sodipodi:cx="-28.282143"
       sodipodi:cy="222.29243"
       sodipodi:rx="13.288791"
       sodipodi:ry="12.912943"
       sodipodi:start="2.1607547"
       sodipodi:end="2.1330271"
       d="m -35.675048,233.02262 a 13.288791,12.912943 0 0 1 -3.70058,-17.83944 13.288791,12.912943 0 0 1 18.332594,-3.71949 13.288791,12.912943 0 0 1 3.954738,17.78788 13.288791,12.912943 0 0 1 -18.277768,3.96609"
       sodipodi:open="true"
       transform="scale(-1,1)" />
    <path
       style="fill:#000000;stroke:#000000;stroke-width:0.26458332px;stroke-linecap:butt;stroke-linejoin:miter;stroke-opacity:1"
       d="m 154.18903,207.46471 17.84024,5.74629 -26.03355,3.11912 z"
       id="path848"
       inkscape:connector-curvature="0"
       sodipodi:nodetypes="cccc" />
    <path
       style="fill:#000000;stroke-width:1.49039733;stroke-miterlimit:4;stroke-dasharray:none"
       id="path850"
       sodipodi:type="arc"
       sodipodi:cx="-30.286171"
       sodipodi:cy="276.73203"
       sodipodi:rx="7.2117109"
       sodipodi:ry="10.810787"
       sodipodi:start="2.1607525"
       sodipodi:end="2.1330192"
       sodipodi:open="true"
       d="m -34.298223,285.71541 a 7.2117109,10.810787 0 0 1 -2.0083,-14.93526 7.2117109,10.810787 0 0 1 9.948923,-3.11404 7.2117109,10.810787 0 0 1 2.146257,14.89208 7.2117109,10.810787 0 0 1 -9.919162,3.32054"
       transform="matrix(-0.97296106,0.23096921,0.32944004,0.9441765,0,0)" />
    <path
       style="fill:#000000;stroke-width:1.61786819;stroke-miterlimit:4;stroke-dasharray:none"
       id="path850-0"
       sodipodi:type="arc"
       sodipodi:cx="9.4540033"
       sodipodi:cy="282.25546"
       sodipodi:rx="7.3024888"
       sodipodi:ry="12.580759"
       sodipodi:start="2.1607525"
       sodipodi:end="2.1330192"
       sodipodi:open="true"
       d="m 5.3914491,292.70963 a 7.3024888,12.580759 0 0 1 -2.0335798,-17.3805 7.3024888,12.580759 0 0 1 10.0741557,-3.62388 7.3024888,12.580759 0 0 1 2.173274,17.33025 7.3024888,12.580759 0 0 1 -10.0440204,3.86419"
       transform="matrix(-0.88726859,0.46125313,0.49293275,0.87006741,0,0)" />
    <path
       style="fill:#000000;stroke-width:1.3706367;stroke-miterlimit:4;stroke-dasharray:none"
       id="path850-6"
       sodipodi:type="arc"
       sodipodi:cx="-120.65966"
       sodipodi:cy="244.60991"
       sodipodi:rx="6.7199345"
       sodipodi:ry="9.8123074"
       sodipodi:start="2.1607525"
       sodipodi:end="2.1330192"
       sodipodi:open="true"
       d="m -124.39813,252.76359 a 6.7199345,9.8123074 0 0 1 -1.87135,-13.55585 6.7199345,9.8123074 0 0 1 9.2705,-2.82642 6.7199345,9.8123074 0 0 1 1.9999,13.51665 6.7199345,9.8123074 0 0 1 -9.24276,3.01386"
       transform="matrix(-0.98964035,-0.14356874,-0.21209878,0.97724823,0,0)" />
    <path
       style="fill:#000000;stroke-width:1.43169105;stroke-miterlimit:4;stroke-dasharray:none"
       id="path850-6-7"
       sodipodi:type="arc"
       sodipodi:cx="-117.98281"
       sodipodi:cy="248.12407"
       sodipodi:rx="7.4322004"
       sodipodi:ry="9.6799402"
       sodipodi:start="2.1607525"
       sodipodi:end="2.1330192"
       sodipodi:open="true"
       d="m -122.11753,256.16776 a 7.4322004,9.6799402 0 0 1 -2.0697,-13.37298 7.4322004,9.6799402 0 0 1 10.2531,-2.7883 7.4322004,9.6799402 0 0 1 2.21188,13.33432 7.4322004,9.6799402 0 0 1 -10.22243,2.9732"
       transform="matrix(-0.99186884,-0.12726427,-0.23832298,0.97118595,0,0)" />
  </g>
</svg>
