<?xml version="1.0" encoding="UTF-8" standalone="no"?>
<!-- Created with Inkscape (http://www.inkscape.org/) -->

<svg
   xmlns:dc="http://purl.org/dc/elements/1.1/"
   xmlns:cc="http://creativecommons.org/ns#"
   xmlns:rdf="http://www.w3.org/1999/02/22-rdf-syntax-ns#"
   xmlns:svg="http://www.w3.org/2000/svg"
   xmlns="http://www.w3.org/2000/svg"
   xmlns:sodipodi="http://sodipodi.sourceforge.net/DTD/sodipodi-0.dtd"
   xmlns:inkscape="http://www.inkscape.org/namespaces/inkscape"
   width="152.91873mm"
   height="159.53592mm"
   viewBox="0 0 152.91873 159.53592"
   version="1.1"
   id="svg16"
   inkscape:version="0.92.3 (2405546, 2018-03-11)">
  <defs
     id="defs10" />
  <sodipodi:namedview
     id="base"
     pagecolor="#ffffff"
     bordercolor="#666666"
     borderopacity="1.0"
     inkscape:pageopacity="0.0"
     inkscape:pageshadow="2"
     inkscape:zoom="1.4"
     inkscape:cx="602.04905"
     inkscape:cy="367.5915"
     inkscape:document-units="mm"
     inkscape:current-layer="layer1"
     showgrid="false"
     inkscape:window-width="3840"
     inkscape:window-height="2104"
     inkscape:window-x="-16"
     inkscape:window-y="-16"
     inkscape:window-maximized="1" />
  <metadata
     id="metadata13">
    <rdf:RDF>
      <cc:Work
         rdf:about="">
        <dc:format>image/svg+xml</dc:format>
        <dc:type
           rdf:resource="http://purl.org/dc/dcmitype/StillImage" />
        <dc:title></dc:title>
      </cc:Work>
    </rdf:RDF>
  </metadata>
  <g
     inkscape:label="Layer 1"
     inkscape:groupmode="layer"
     id="layer1"
     transform="translate(-14.993352,-106.4691)">
    <ellipse
       id="path18"
       cx="-86.710503"
       cy="210.82143"
       rx="65.578873"
       ry="46.869045"
       style="stroke-width:0.26458332"
       transform="scale(-1,1)" />
    <path
       id="path20"
       style="fill:#ffffff;stroke-width:0.26458332"
       sodipodi:type="arc"
       sodipodi:cx="84.093445"
       sodipodi:cy="-177.31807"
       sodipodi:rx="30.805059"
       sodipodi:ry="7.5595241"
       sodipodi:start="6.137811"
       sodipodi:end="3.319812"
       d="m 114.57356,-178.41316 a 30.805059,7.5595241 0 0 1 -14.08797,7.49548 30.805059,7.5595241 0 0 1 -33.631946,-0.13555 30.805059,7.5595241 0 0 1 -13.077335,-7.60497 l 30.317136,1.34013 z"
       transform="matrix(0.99991688,-0.01289291,-0.01289291,-0.99991688,0,0)" />
    <path
       style="fill:#ffff00;stroke:#000000;stroke-width:1.16499996;stroke-linecap:butt;stroke-linejoin:miter;stroke-miterlimit:4;stroke-dasharray:none;stroke-opacity:1"
       d="m 79.113902,177.18155 17.386905,-22.67857 -18.898808,-11.71726 27.970241,-35.52976 30.61607,20.78868 -26.83631,15.875 12.85119,11.33929 -26.309423,22.09412 z"
       id="path827"
       inkscape:connector-curvature="0" />
    <path
       style="fill:#000000;stroke:#000000;stroke-width:0.26458332px;stroke-linecap:butt;stroke-linejoin:miter;stroke-opacity:1"
       d="m 43.810201,181.71726 -13.98512,-13.60714 3.40179,22.67857 z"
       id="path829"
       inkscape:connector-curvature="0" />
    <path
       style="fill:#000000;stroke:#000000;stroke-width:0.26458332px;stroke-linecap:butt;stroke-linejoin:miter;stroke-opacity:1"
       d="m 33.360501,186.77965 -17.12567,-9.35144 9.36735,20.93186 z"
       id="path829-3"
       inkscape:connector-curvature="0" />
    <path
       style="fill:#000000;stroke-width:1.51734567;stroke-miterlimit:4;stroke-dasharray:none"
       id="path846"
       sodipodi:type="arc"
       sodipodi:cx="-23.746429"
       sodipodi:cy="217.37875"
       sodipodi:rx="8.7530766"
       sodipodi:ry="8.3772287"
       sodipodi:start="2.1607547"
       sodipodi:end="2.1330271"
       d="m -28.615997,224.33993 a 8.7530766,8.3772287 0 0 1 -2.437503,-11.57328 8.7530766,8.3772287 0 0 1 12.075335,-2.41301 8.7530766,8.3772287 0 0 1 2.604912,11.53983 8.7530766,8.3772287 0 0 1 -12.039222,2.57299"
       sodipodi:open="true"
       transform="scale(-1,1)" />
    <path
       style="fill:#000000;stroke:#000000;stroke-width:0.26458332px;stroke-linecap:butt;stroke-linejoin:miter;stroke-opacity:1"
       d="m 150.03129,207.46471 17.84024,5.74629 -17.90706,-2.73951 z"
       id="path848"
       inkscape:connector-curvature="0" />
    <path
       style="fill:#000000;stroke-width:1.16499996;stroke-miterlimit:4;stroke-dasharray:none"
       id="path850"
       sodipodi:type="arc"
       sodipodi:cx="-39.163704"
       sodipodi:cy="276.17673"
       sodipodi:rx="5.1971726"
       sodipodi:ry="9.1659222"
       sodipodi:start="2.1607525"
       sodipodi:end="2.1330192"
       sodipodi:open="true"
       d="m -42.055019,283.79329 a 5.1971726,9.1659222 0 0 1 -1.447296,-12.66286 5.1971726,9.1659222 0 0 1 7.169765,-2.64024 5.1971726,9.1659222 0 0 1 1.546716,12.62625 5.1971726,9.1659222 0 0 1 -7.148318,2.81532"
       transform="matrix(-0.96099269,0.27657378,0.27657378,0.96099269,0,0)" />
    <path
       style="fill:#000000;stroke-width:1.16499996;stroke-miterlimit:4;stroke-dasharray:none"
       id="path850-0"
       sodipodi:type="arc"
       sodipodi:cx="11.727552"
       sodipodi:cy="281.45258"
       sodipodi:rx="5.1971726"
       sodipodi:ry="9.1659222"
       sodipodi:start="2.1607525"
       sodipodi:end="2.1330192"
       sodipodi:open="true"
       d="m 8.8362374,289.06914 a 5.1971726,9.1659222 0 0 1 -1.4472963,-12.66286 5.1971726,9.1659222 0 0 1 7.1697649,-2.64024 5.1971726,9.1659222 0 0 1 1.546716,12.62625 5.1971726,9.1659222 0 0 1 -7.1483172,2.81532"
       transform="matrix(-0.87891148,0.47698491,0.47698491,0.87891148,0,0)" />
    <path
       style="fill:#000000;stroke-width:1.16499996;stroke-miterlimit:4;stroke-dasharray:none"
       id="path850-6"
       sodipodi:type="arc"
       sodipodi:cx="-108.86739"
       sodipodi:cy="241.63036"
       sodipodi:rx="5.1971726"
       sodipodi:ry="9.1659222"
       sodipodi:start="2.1607525"
       sodipodi:end="2.1330192"
       sodipodi:open="true"
       d="m -111.75871,249.24692 a 5.1971726,9.1659222 0 0 1 -1.44729,-12.66286 5.1971726,9.1659222 0 0 1 7.16976,-2.64024 5.1971726,9.1659222 0 0 1 1.54672,12.62625 5.1971726,9.1659222 0 0 1 -7.14832,2.81532"
       transform="matrix(-0.98461933,-0.17471341,-0.17471341,0.98461933,0,0)" />
    <path
       style="fill:#000000;stroke-width:1.16499996;stroke-miterlimit:4;stroke-dasharray:none"
       id="path850-6-7"
       sodipodi:type="arc"
       sodipodi:cx="-101.69724"
       sodipodi:cy="242.32683"
       sodipodi:rx="5.1971726"
       sodipodi:ry="9.1659222"
       sodipodi:start="2.1607525"
       sodipodi:end="2.1330192"
       sodipodi:open="true"
       d="m -104.58856,249.94339 a 5.1971726,9.1659222 0 0 1 -1.44729,-12.66286 5.1971726,9.1659222 0 0 1 7.169761,-2.64024 5.1971726,9.1659222 0 0 1 1.546716,12.62625 5.1971726,9.1659222 0 0 1 -7.148317,2.81532"
       transform="matrix(-0.98461933,-0.17471341,-0.17471341,0.98461933,0,0)" />
  </g>
</svg>
