<?xml version="1.0" encoding="UTF-8" standalone="no"?>
<!-- Created with Inkscape (http://www.inkscape.org/) -->

<svg
   xmlns:dc="http://purl.org/dc/elements/1.1/"
   xmlns:cc="http://creativecommons.org/ns#"
   xmlns:rdf="http://www.w3.org/1999/02/22-rdf-syntax-ns#"
   xmlns:svg="http://www.w3.org/2000/svg"
   xmlns="http://www.w3.org/2000/svg"
   xmlns:sodipodi="http://sodipodi.sourceforge.net/DTD/sodipodi-0.dtd"
   xmlns:inkscape="http://www.inkscape.org/namespaces/inkscape"
   width="400mm"
   height="300mm"
   viewBox="0 0 400 300"
   version="1.1"
   id="svg16"
   inkscape:version="0.92.3 (2405546, 2018-03-11)"
   sodipodi:docname="robocake.svg">
  <defs
     id="defs10" />
  <sodipodi:namedview
     id="base"
     pagecolor="#ffffff"
     bordercolor="#666666"
     borderopacity="1.0"
     inkscape:pageopacity="0.0"
     inkscape:pageshadow="2"
     inkscape:zoom="1.0388203"
     inkscape:cx="498.6345"
     inkscape:cy="591.9377"
     inkscape:document-units="mm"
     inkscape:current-layer="layer1"
     showgrid="false"
     inkscape:window-width="3840"
     inkscape:window-height="2104"
     inkscape:window-x="-16"
     inkscape:window-y="-16"
     inkscape:window-maximized="1"
     showguides="false" />
  <metadata
     id="metadata13">
    <rdf:RDF>
      <cc:Work
         rdf:about="">
        <dc:format>image/svg+xml</dc:format>
        <dc:type
           rdf:resource="http://purl.org/dc/dcmitype/StillImage" />
        <dc:title></dc:title>
      </cc:Work>
    </rdf:RDF>
  </metadata>
  <g
     inkscape:label="Layer 1"
     inkscape:groupmode="layer"
     id="layer1"
     transform="translate(0,3)"
     style="display:none">
    <ellipse
       style="fill:#ffaaaa;stroke:#000000;stroke-width:1.76499999;stroke-miterlimit:4;stroke-dasharray:none;paint-order:stroke fill markers"
       id="path870"
       cx="156.34148"
       cy="242.21513"
       rx="7.5135307"
       ry="18.083412"
       transform="rotate(-9.9897011)" />
    <ellipse
       style="fill:#ffaaaa;stroke:#000000;stroke-width:1.76499999;stroke-miterlimit:4;stroke-dasharray:none;paint-order:stroke fill markers"
       id="path870-2"
       cx="142.02272"
       cy="198.40309"
       rx="7.5135307"
       ry="18.083412"
       transform="rotate(7.3817984)" />
    <path
       style="fill:#ffaaaa;stroke:#000000;stroke-width:1.76499999;stroke-miterlimit:4;stroke-dasharray:none;paint-order:stroke fill markers"
       id="path890"
       d="m 73.963045,142.26145 c -1.488652,0.71662 -2.976102,1.42642 -4.538657,1.96783 -1.214919,0.4387 -2.467986,0.7492 -3.745672,0.93094 -1.082104,0.13157 -2.173497,0.13472 -3.261799,0.1399 -1.143932,0.0205 -2.284405,0.009 -3.415813,-0.17198 -0.902814,-0.14015 -1.78829,-0.38126 -2.648736,-0.68579 -0.785929,-0.21138 -1.508572,-0.5904 -2.239526,-0.93845 -0.658596,-0.33105 -1.267034,-0.74759 -1.894419,-1.13113 -0.528678,-0.35364 -1.066417,-0.69125 -1.568813,-1.08231 -0.493747,-0.32643 -0.978037,-0.64932 -1.417849,-1.04682 -0.408294,-0.43761 -0.763762,-0.91846 -1.071713,-1.43084 -0.275048,-0.38074 -0.488995,-0.79886 -0.735013,-1.19831 -0.206825,-0.4061 -0.427275,-0.80587 -0.568624,-1.24062 -0.105399,-0.54176 -0.21059,-1.08562 -0.297645,-1.63131 -0.08223,-0.54578 -0.102079,-1.09778 -0.110578,-1.64877 -0.0059,-0.57641 -0.005,-1.15286 -0.0047,-1.72929 -0.01516,-0.50775 -0.01214,-1.00516 0.117877,-1.49804 0.143039,-0.44656 0.371759,-0.85807 0.688078,-1.20354 2.012403,-1.42768 2.737784,-2.10274 4.661774,-2.15848 0.471987,0.0811 0.899165,0.33439 1.255807,0.64687 0.297265,0.24607 0.585103,0.51185 0.841719,0.80109 0.201488,0.32564 0.461439,0.60718 0.649161,0.94091 0.174254,0.43954 0.302347,0.89966 0.398748,1.36267 0.09466,0.51135 0.110225,1.0321 0.120954,1.55061 0.0067,0.51138 0.0044,1.02283 0.0034,1.53424 0.03658,0.46111 -0.08215,0.87957 -0.267211,1.29375 -0.145264,0.34912 -0.357642,0.66621 -0.611523,0.94509 -0.284007,0.31818 -0.594186,0.61709 -0.917985,0.89551 -0.18814,0.12171 -0.340228,0.29332 -0.534393,0.40659 -1.148397,0.66995 -2.29902,1.33616 -3.4554,1.99223 -0.0701,0.0398 -0.292171,0.13507 -0.222565,0.0944 1.016223,-0.59307 2.042653,-1.16847 3.063981,-1.7527 -1.476354,0.90399 -2.954303,1.81233 -4.547753,2.48438 -0.502309,0.18426 -1.002729,0.37063 -1.509443,0.54386 -0.552312,0.14603 -1.097526,0.29537 -1.663708,0.38212 -0.569582,0.0475 -1.1293,0.091 -1.692288,0.18427 -0.638887,0.0994 -1.286208,0.12879 -1.931659,0.14918 -0.572323,0.001 -1.147464,0.0495 -1.714847,-0.0353 -0.580115,-0.0463 -1.081947,-0.33477 -1.611691,-0.54075 -0.431051,-0.25707 -0.818224,-0.58836 -1.172234,-0.94299 -0.440557,-0.42179 -0.817514,-0.89726 -1.197842,-1.3719 -0.438153,-0.47823 -0.81847,-1.00836 -1.25943,-1.48292 -0.365615,-0.33755 -0.62003,-0.7274 -0.864423,-1.15383 -0.209685,-0.40748 -0.375465,-0.83596 -0.490964,-1.27929 -0.120033,-0.63526 -0.128034,-1.28545 -0.14071,-1.92997 -0.0078,-0.5499 -0.0057,-1.09987 -0.0047,-1.6498 0.0013,-0.52022 7.94e-4,-1.04045 0.0029,-1.56066 0.0098,-0.58027 -0.02064,-1.16153 0.02074,-1.74067 0.03082,-0.56802 0.233037,-1.0828 0.443249,-1.60228 0.205489,-0.50248 0.416732,-1.0036 0.681638,-1.478 0.121087,-0.23717 0.277122,-0.45054 0.438407,-0.66101 0,0 3.503112,-1.47237 3.503112,-1.47237 v 0 c -0.185801,0.17358 -0.348456,0.35579 -0.471525,0.58131 -0.257421,0.46712 -0.509971,0.93211 -0.705683,1.43107 -0.184367,0.50238 -0.456382,0.96627 -0.485378,1.51448 -0.08903,0.56173 -0.01847,1.13641 -0.04046,1.70334 0.0019,0.52014 2.64e-4,1.04028 -7.94e-4,1.56042 -0.0016,0.54855 -0.0047,1.09711 -0.0019,1.64567 0.0066,0.6177 0.0097,1.23944 0.105383,1.85108 0.09611,0.41354 0.252463,0.80724 0.442534,1.18634 0.228127,0.40266 0.474165,0.76392 0.815166,1.08624 0.435319,0.49039 0.83281,1.01419 1.270444,1.5032 0.371859,0.46294 0.74431,0.92357 1.178809,1.33082 0.327625,0.31475 0.679979,0.62381 1.093615,0.81866 0.497565,0.21428 0.994524,0.42722 1.545659,0.45337 0.560763,0.0279 1.122738,0.007 1.68374,-0.008 0.637804,-0.0289 1.275606,-0.0741 1.905111,-0.18583 0.560612,-0.0854 1.129683,-0.084 1.68801,-0.18925 0.550444,-0.11052 1.093964,-0.25904 1.627375,-0.43371 0.499277,-0.18357 1.004959,-0.35064 1.490927,-0.56877 1.332529,-0.63733 3.793786,-1.8488 -1.977255,1.24516 1.151758,-0.66221 2.302854,-1.32558 3.455273,-1.98664 0.06844,-0.0393 0.275537,-0.15385 0.207267,-0.1143 -1.01627,0.58876 -2.037998,1.16812 -3.051315,1.76194 -0.06215,0.0364 0.133903,-0.0541 0.196847,-0.0892 0.169339,-0.0942 0.210545,-0.14748 0.354161,-0.27841 0.36192,-0.22565 0.620675,-0.54316 0.949655,-0.80735 0.214231,-0.28616 0.490458,-0.51824 0.658897,-0.84104 0.145688,-0.38773 0.393267,-0.72266 0.33568,-1.16339 0.0011,-0.50932 0.0032,-1.01866 -1.93e-4,-1.52799 -0.0062,-0.49767 -0.01288,-0.99752 -0.09002,-1.49036 -0.07939,-0.42761 -0.204195,-0.84446 -0.34463,-1.25501 -0.172167,-0.30768 -0.417962,-0.56642 -0.604954,-0.86547 -0.254389,-0.26786 -0.521605,-0.52649 -0.811607,-0.75558 -0.321715,-0.24162 -0.678174,-0.4453 -1.094541,-0.41583 -1.612043,0.13159 -3.309967,1.58282 1.92751,-1.51491 -0.378142,0.2283 -0.612661,0.60733 -0.771011,1.01333 -0.198747,0.44406 -0.192559,0.90678 -0.176477,1.38661 -0.0013,0.57476 -0.0041,1.14954 7.93e-4,1.72429 0.0079,0.53501 0.01651,1.07138 0.08695,1.60265 0.07707,0.52941 0.196085,1.05078 0.275627,1.57915 0.118822,0.40893 0.332965,0.77707 0.520893,1.15685 0.247928,0.40025 0.459793,0.82086 0.732745,1.20515 0.287626,0.47952 0.621496,0.93044 1.012661,1.3313 0.439145,0.38137 0.929272,0.68593 1.400715,1.02505 0.499594,0.37486 1.028097,0.70824 1.549011,1.0523 0.608642,0.38756 1.21657,0.77978 1.865709,1.09767 0.722112,0.34085 1.441067,0.69183 2.215198,0.90256 0.849468,0.27772 1.713658,0.51515 2.601486,0.63352 1.122233,0.14447 2.250163,0.14742 3.380314,0.12715 1.077714,-0.0111 2.159143,-0.0264 3.227668,-0.183 1.258597,-0.20956 2.491658,-0.5395 3.690377,-0.97877 1.553903,-0.572 3.042287,-1.29021 4.533053,-2.00833 0,0 -2.958719,2.35362 -2.958719,2.35362 z"
       inkscape:connector-curvature="0" />
    <ellipse
       style="fill:#ffaaaa;stroke:#000000;stroke-width:1.76499999;stroke-miterlimit:4;stroke-dasharray:none"
       id="path829"
       cx="153.4127"
       cy="152.13991"
       rx="88.733482"
       ry="59.868374" />
    <path
       style="fill:#ffaaaa;stroke:#000000;stroke-width:1.76499999;stroke-miterlimit:4;stroke-dasharray:none;paint-order:stroke fill markers"
       id="path898"
       d="m 238.1887,67.910801 c -0.10527,-1.306957 -0.33909,-2.596396 -0.54235,-3.890068 -0.10736,-0.653336 -0.15741,-1.313103 -0.17748,-1.974226 -0.0104,-0.507463 -0.007,-1.015079 -0.005,-1.522608 0.012,-0.495871 -0.0405,-0.995005 0.072,-1.481423 0.73005,-1.382834 2.58263,-2.401687 4.14634,-2.183564 0.09,0.01254 0.46347,0.116919 0.55758,0.14251 0.49432,0.191719 0.85022,0.499263 1.11908,0.951682 0.28611,0.456488 0.41579,0.970484 0.49345,1.497002 0.0604,0.515948 0.0601,1.036275 0.0618,1.55497 -2.7e-4,0.510182 -0.003,1.020363 -0.004,1.530548 -0.001,0.509302 -0.001,1.018603 -0.001,1.527905 0.002,0.308745 -0.007,0.625504 0.009,0.929418 0,0 -3.40342,1.7345 -3.40342,1.7345 v 0 c 0.0153,-0.310005 0.007,-0.626229 0.009,-0.938641 5e-5,-0.509508 1e-4,-1.019019 7.9e-4,-1.52853 7.9e-4,-0.509834 0.003,-1.019667 0.004,-1.529498 2.6e-4,-0.503724 0.004,-1.008526 -0.0389,-1.51085 -0.0559,-0.479655 -0.15464,-0.948592 -0.42093,-1.36117 -0.21871,-0.366583 -0.53983,-0.586494 -0.95379,-0.696714 -0.21643,-0.04399 -0.28298,-0.06812 -0.50458,-0.07113 -0.0936,-0.0013 -0.35877,0.06437 -0.28064,0.01275 4.14563,-2.738916 3.88792,-2.204019 2.66004,-1.658506 -0.2607,0.390771 -0.0974,0.909175 -0.13862,1.354302 -0.002,0.504695 -0.005,1.009414 -2.7e-4,1.514101 0.011,0.648994 0.0448,1.297652 0.1397,1.940568 0.18454,1.299218 0.40911,2.592412 0.54679,3.898038 0,0 -3.34792,1.758627 -3.34792,1.758627 z"
       inkscape:connector-curvature="0" />
    <path
       style="fill:#ffaaaa;stroke:#000000;stroke-width:1.76499999;stroke-miterlimit:4;stroke-dasharray:none;paint-order:stroke fill markers"
       id="path894"
       d="m 198.79617,75.213378 c -0.75382,-1.132084 -1.47673,-2.282172 -2.20281,-3.431985 -0.45689,-0.682598 -0.79772,-1.426668 -1.15064,-2.165061 -0.2497,-0.603012 -0.41602,-1.23901 -0.57669,-1.870919 -0.0695,-0.483606 -0.21723,-0.948497 -0.32212,-1.424297 -0.0932,-0.492649 -0.14069,-0.990283 -0.0433,-1.484189 0.55936,-1.398907 2.48244,-1.765294 3.65003,-2.422043 0.18679,-0.105063 0.5041,-0.06615 0.70194,-0.03811 0.47335,0.05032 0.88668,0.25387 1.30305,0.466418 0.41217,0.276235 0.60624,0.740759 0.76437,1.193032 0.12646,0.446636 0.28487,0.878237 0.36972,1.335945 0.0232,0.466238 0.19807,0.887783 0.35705,1.318152 0.1123,0.418372 0.23373,0.833588 0.38236,1.240967 0.14923,0.478742 0.42528,0.89721 0.69394,1.314691 0.0992,0.202562 0.22832,0.386876 0.34389,0.579974 0,0 -3.29146,1.906643 -3.29146,1.906643 v 0 c -0.11287,-0.189764 -0.23856,-0.371803 -0.33525,-0.570769 -0.28119,-0.439849 -0.57075,-0.882653 -0.73479,-1.382633 -0.15838,-0.4053 -0.28277,-0.822921 -0.38481,-1.245315 -0.16128,-0.451196 -0.36897,-0.890153 -0.38932,-1.378384 -0.0685,-0.442923 -0.22223,-0.854323 -0.34062,-1.28415 -0.11764,-0.364077 -0.25636,-0.749924 -0.61271,-0.938696 -0.37801,-0.187727 -0.77635,-0.328047 -1.20462,-0.322247 -0.16468,0.02672 -0.23462,0.0296 -0.39647,0.0947 -0.0654,0.0263 -0.24882,0.132577 -0.1883,0.0964 6.28546,-3.757541 3.63247,-2.366563 2.75046,-1.587831 -0.19494,0.415433 -0.10195,0.870183 -0.0431,1.311415 0.0937,0.474848 0.25796,0.931789 0.31105,1.414955 0.14556,0.609904 0.30876,1.221197 0.53568,1.805604 0.34506,0.726313 0.67217,1.460952 1.11404,2.136373 0.71234,1.151733 1.41724,2.306539 2.1995,3.413352 0,0 -3.2601,1.91801 -3.2601,1.91801 z"
       inkscape:connector-curvature="0" />
    <ellipse
       style="fill:#ffaaaa;stroke:#000000;stroke-width:1.76499999;stroke-miterlimit:4;stroke-dasharray:none"
       id="path831"
       cx="231.72267"
       cy="112.8513"
       rx="63.34288"
       ry="48.91032" />
    <ellipse
       style="fill:#333333;stroke:#000000;stroke-width:1.76499999;stroke-miterlimit:4;stroke-dasharray:none;paint-order:stroke fill markers"
       id="path843"
       cx="267.17606"
       cy="127.11779"
       rx="31.327599"
       ry="29.035337" />
    <ellipse
       style="fill:#ffaaaa;stroke:#000000;stroke-width:1.76499999;stroke-miterlimit:4;stroke-dasharray:none"
       id="path837"
       cx="268.45181"
       cy="125.89722"
       rx="31.270535"
       ry="29.399649" />
    <ellipse
       style="fill:#333333;stroke:#000000;stroke-width:1.76499999;stroke-miterlimit:4;stroke-dasharray:none"
       id="path839"
       cx="268.44955"
       cy="126.22636"
       rx="2.5469594"
       ry="6.7494426" />
    <ellipse
       style="fill:#333333;stroke:#000000;stroke-width:1.76499999;stroke-miterlimit:4;stroke-dasharray:none"
       id="path841"
       cx="281.56641"
       cy="125.71697"
       rx="2.4196117"
       ry="6.2400508" />
    <ellipse
       style="fill:#1a1a1a;stroke:#000000;stroke-width:1.76499999;stroke-miterlimit:4;stroke-dasharray:none;paint-order:stroke fill markers"
       id="path849"
       cx="219.42056"
       cy="87.767273"
       rx="1.9102197"
       ry="2.4196117" />
    <ellipse
       style="fill:#1a1a1a;stroke:#000000;stroke-width:1.76499999;stroke-miterlimit:4;stroke-dasharray:none;paint-order:stroke fill markers"
       id="path849-4"
       cx="235.33905"
       cy="88.149315"
       rx="1.9102197"
       ry="2.4196117" />
    <ellipse
       style="fill:#ffaaaa;stroke:#000000;stroke-width:1.76499999;stroke-miterlimit:4;stroke-dasharray:none;paint-order:stroke fill markers"
       id="path868"
       cx="182.3623"
       cy="212.95033"
       rx="9.4237509"
       ry="19.611589" />
    <ellipse
       style="fill:#ffaaaa;stroke:#000000;stroke-width:1.76499999;stroke-miterlimit:4;stroke-dasharray:none;paint-order:stroke fill markers"
       id="path868-9"
       cx="160.66051"
       cy="172.28641"
       rx="9.4237509"
       ry="19.611589"
       transform="rotate(17.371499)" />
  </g>
  <g
     inkscape:groupmode="layer"
     id="layer7"
     inkscape:label="Layer 2">
    <path
       id="path5932"
       style="fill:#b3b3b3;fill-opacity:1;stroke:#1a1a1a;stroke-width:0.865;stroke-linecap:butt;stroke-linejoin:miter;stroke-opacity:1;stroke-miterlimit:4;stroke-dasharray:none"
       d="m 90.769007,102.43333 65.195203,-13.3272 0.36019,56.91073 c -17.38765,-3.65937 -28.25749,2.45797 -41.24226,5.40292 z"
       inkscape:connector-curvature="0" />
    <rect
       style="fill:#808080;fill-opacity:1;stroke:#1a1a1a;stroke-width:0.86500001;stroke-miterlimit:4;stroke-dasharray:none;paint-order:stroke fill markers"
       id="rect5935-2-0"
       width="9.365056"
       height="27.915071"
       x="59.607693"
       y="149.09955"
       transform="rotate(-22.58599)" />
    <rect
       style="fill:#b3b3b3;fill-opacity:1;stroke:#1a1a1a;stroke-width:0.86500001;stroke-miterlimit:4;stroke-dasharray:none;paint-order:stroke fill markers"
       id="rect5935-5"
       width="9.365056"
       height="27.915071"
       x="57.269352"
       y="147.83427"
       transform="rotate(-22.58599)" />
    <rect
       style="fill:#808080;fill-opacity:1;stroke:#1a1a1a;stroke-width:0.86500001;stroke-miterlimit:4;stroke-dasharray:none;paint-order:stroke fill markers"
       id="rect5935-2"
       width="9.365056"
       height="27.915071"
       x="55.127037"
       y="146.44098"
       transform="rotate(-22.58599)" />
    <rect
       style="fill:#b3b3b3;fill-opacity:1;stroke:#1a1a1a;stroke-width:0.86500001;stroke-miterlimit:4;stroke-dasharray:none;paint-order:stroke fill markers"
       id="rect5935"
       width="9.365056"
       height="27.915071"
       x="52.788696"
       y="145.1757"
       transform="rotate(-22.585989)" />
    <ellipse
       style="fill:#44aa00;fill-opacity:1;stroke:#1a1a1a;stroke-width:0.86500001;stroke-miterlimit:4;stroke-dasharray:none;paint-order:stroke fill markers"
       id="path5970"
       cx="116.95898"
       cy="124.27882"
       rx="13.276027"
       ry="2.0375676"
       transform="rotate(-11.18291)" />
    <ellipse
       style="fill:#ff0000;fill-opacity:1;stroke:#1a1a1a;stroke-width:0.86500001;stroke-miterlimit:4;stroke-dasharray:none;paint-order:stroke fill markers"
       id="path5980"
       cx="147.46895"
       cy="102.54695"
       rx="0.76408792"
       ry="0.70041382" />
    <ellipse
       style="fill:#ff0000;fill-opacity:1;stroke:#1a1a1a;stroke-width:0.86500001;stroke-miterlimit:4;stroke-dasharray:none;paint-order:stroke fill markers"
       id="path5982"
       cx="147.851"
       cy="106.08086"
       rx="0.70041382"
       ry="0.6685769" />
    <circle
       style="fill:#0000ff;fill-opacity:1;stroke:#1a1a1a;stroke-width:0.86500001;stroke-miterlimit:4;stroke-dasharray:none;paint-order:stroke fill markers"
       id="path5988"
       cx="148.36038"
       cy="109.67844"
       r="0.70041382" />
    <rect
       style="fill:#808080;fill-opacity:1;stroke:#1a1a1a;stroke-width:0.23557006;stroke-miterlimit:4;stroke-dasharray:none;paint-order:stroke fill markers"
       id="rect5935-2-0-2"
       width="0.87168485"
       height="22.243219"
       x="351.58136"
       y="445.53494"
       transform="matrix(0.25524751,-0.96687575,0.12359285,0.99233301,0,0)" />
  </g>
</svg>
